<svg xmlns="http://www.w3.org/2000/svg" width="15" height="13" viewBox="0 0 15 13">
    <path fill="#4D4D4D" fill-rule="nonzero" d="M7.5 4.875c-1.243 0-2.25 1.092-2.25 2.438S6.257 9.75 7.5 9.75c1.242 0 2.25-1.091 2.25-2.438 0-1.345-1.008-2.437-2.25-2.437zm6-2.438h-1.8c-.247 0-.514-.208-.592-.462L10.642.462C10.564.208 10.297 0 10.05 0h-5.1c-.248 0-.514.208-.592.462l-.466 1.513c-.078.254-.345.462-.592.462H1.5c-.825 0-1.5.732-1.5 1.626v7.312C0 12.269.675 13 1.5 13h12c.825 0 1.5-.731 1.5-1.625V4.062c0-.893-.675-1.625-1.5-1.625zm-6 8.938c-2.071 0-3.75-1.819-3.75-4.063C3.75 5.07 5.429 3.25 7.5 3.25c2.07 0 3.75 1.819 3.75 4.063 0 2.243-1.68 4.062-3.75 4.062zm5.475-6.176c-.29 0-.525-.255-.525-.569 0-.314.235-.569.525-.569.29 0 .525.255.525.57 0 .313-.235.568-.525.568z"/>
</svg>
