<svg xmlns="http://www.w3.org/2000/svg" xmlns:xlink="http://www.w3.org/1999/xlink" width="161.533" height="204.682" viewBox="0 0 161.533 204.682"><defs><linearGradient id="a" x1="0.5" y1="1" x2="0.5" gradientUnits="objectBoundingBox"><stop offset="0" stop-color="gray" stop-opacity="0.251"/><stop offset="0.54" stop-color="gray" stop-opacity="0.122"/><stop offset="1" stop-color="gray" stop-opacity="0.102"/></linearGradient><linearGradient id="b" x1="0.5" y1="1" x2="0.5" y2="0" xlink:href="#a"/><linearGradient id="c" x1="0.146" y1="1.023" x2="0.933" y2="-0.011" xlink:href="#a"/><linearGradient id="d" x1="0.5" y1="1" x2="0.5" gradientUnits="objectBoundingBox"><stop offset="0" stop-color="#fcfdff"/><stop offset="1" stop-color="#b2ebf2"/></linearGradient><linearGradient id="e" x1="0.5" y1="1" x2="0.5" y2="0" xlink:href="#a"/><linearGradient id="f" x1="0.5" y1="1" x2="0.5" y2="-0.001" xlink:href="#a"/><linearGradient id="g" x1="0.5" y1="1" x2="0.5" y2="0" xlink:href="#a"/><linearGradient id="h" x1="0.5" y1="1" x2="0.5" y2="0" xlink:href="#a"/></defs><g transform="translate(-475.667 -91.417)"><g transform="translate(518.034 106)"><path d="M404.55,245.87h0a8.55,8.55,0,0,1-11.755,2.671l-24.9-16.406a8.55,8.55,0,0,1-2.671-11.755h0a8.55,8.55,0,0,1,11.755-2.671l24.9,16.406A8.55,8.55,0,0,1,404.55,245.87Z" transform="translate(-363.96 -180.27)" fill="url(#a)"/><path d="M407.575,248.422h0a7.947,7.947,0,0,1-10.928,2.484L373.5,235.642a7.947,7.947,0,0,1-2.484-10.928h0a7.947,7.947,0,0,1,10.928-2.484l23.145,15.251a7.947,7.947,0,0,1,2.482,10.941Z" transform="translate(-368.359 -183.72)" fill="#be7c5e"/><path d="M563.423,588.3a18.184,18.184,0,0,0-36.048-3.39l-55.884-1.513.633,9.6s-7.967,18.386,33.912,23.291v18.59h48.424V603.983a18.174,18.174,0,0,0,8.963-15.687Z" transform="translate(-444.396 -444.774)" fill="url(#b)"/><path d="M452.585,637.93c-.288,5.173,3.213,15.957,35.841,19.481v17.806h50.3V628.054L452.56,625.9l.028.416A92.988,92.988,0,0,1,452.585,637.93Z" transform="translate(-430.24 -486.487)" fill="#be7c5e"/><g transform="translate(19.309 0)" opacity="0.5"><path d="M518.121,73.13l-74.449.182a3.059,3.059,0,0,0-3.052,3.064l.348,139.247a3.059,3.059,0,0,0,3.067,3.052l74.449-.182a3.059,3.059,0,0,0,3.052-3.067l-.346-139.244A3.059,3.059,0,0,0,518.121,73.13Z" transform="translate(-440.62 -73.13)" fill="url(#c)"/></g><rect width="78.391" height="141.499" rx="13.64" transform="translate(20.395 2.084) rotate(-0.14)" fill="#fff"/><path d="M509.688,94.785a6.356,6.356,0,0,1-6.25,5.42l-27.077.066a6.356,6.356,0,0,1-6.277-5.39l-14.343.035A2.979,2.979,0,0,0,452.77,97.9l.31,128.45a2.979,2.979,0,0,0,2.984,2.971l68.507-.166a2.979,2.979,0,0,0,2.971-2.984l-.313-128.45a2.979,2.979,0,0,0-2.984-2.971Z" transform="translate(-430.397 -89.297)" fill="#6c63ff"/><rect width="17.468" height="1.092" rx="0.546" transform="translate(50.155 7.372) rotate(-0.86)" fill="#dbdbdb"/><circle cx="0.656" cy="0.656" r="0.656" transform="translate(70.674 6.844) rotate(-0.86)" fill="#dbdbdb"/><circle cx="6.27" cy="6.27" r="6.27" transform="translate(53.445 121.92)" fill="#eee" opacity="0.5"/><circle cx="4.419" cy="4.419" r="4.419" transform="translate(55.296 123.771)" fill="none" stroke="#6c63ff" stroke-miterlimit="10" stroke-width="1" opacity="0.2"/><rect width="7.612" height="7.612" transform="translate(31.057 124.384)" fill="#eee" opacity="0.5"/><path d="M692.558,567.42v-.837a.252.252,0,0,0-.252-.252h-2.943a.252.252,0,0,0-.252.252v.837h-1.14v-.5h-.676v.5h-.845v5.062h8.774V567.42Z" transform="translate(-605.141 -441.941)" fill="#eee" opacity="0.5"/><rect width="74.785" height="93.817" transform="translate(22.323 20.265)" fill="url(#d)"/><circle cx="2.015" cy="2.015" r="2.015" transform="translate(87.032 12.429)" fill="#eee" opacity="0.7"/><circle cx="2.015" cy="2.015" r="2.015" transform="translate(88.376 14.444)" fill="#eee" opacity="0.7"/><circle cx="2.015" cy="2.015" r="2.015" transform="translate(85.466 14.444)" fill="#eee" opacity="0.5"/><path d="M105.044,49.28l3.135,2.015L103.7,53.31l2.24,2.015" transform="translate(-77.572 -36.851)" fill="#eee" opacity="0.7"/><rect width="22.167" height="56.873" transform="translate(22.323 57.211)" fill="#6c63ff" opacity="0.3"/><rect width="10.971" height="13.435" transform="translate(75.836 100.649)" fill="#6c63ff" opacity="0.3"/><rect width="9.405" height="24.853" transform="translate(86.81 89.453)" fill="#6c63ff" opacity="0.3"/><path d="M517.04,373.434h-3.581s-1.112-39.183,3.581-51.274h.9S514.808,366.493,517.04,373.434Z" transform="translate(-475.694 -259.353)" fill="#fff8e1"/><path d="M483.715,255.738s-2.91,8.071-1.566,11.645c0,0,2.018-7.39,4.366-8.51s4.815,8.51,4.815,8.51,1.344-6.053-1.12-10.971a19.464,19.464,0,0,1,7.39,7.836s.449-3.359-5.375-10.3a22.73,22.73,0,0,1,8.51,4.479s1.12-2.464-5.821-6.494c0,0,.9-2.91,6.27-1.566,0,0,0-3.806-8.51-3.135,0,0,0-2.464,5.6-2.018,0,0,0-3.135-6.494-2.018a9.825,9.825,0,0,1,2.24-2.464,4.5,4.5,0,0,0-3.135.9s.225-4.035-3.135-5.6l-.449,5.6s-3.763-4.436-2.91-3.581a9.807,9.807,0,0,1,.671,4.255,6.979,6.979,0,0,0-8.509.224s5.821.449,6.716,2.464c0,0-4.926-.9-6.053-.224,0,0,3.806,1.344,3.581,2.24,0,0-6.716,0-7.612,2.464,0,0,6.941.9,7.39,1.566,0,0-8.071,5.821-8.51,7.39,0,0,8.285-4.926,9.627-4.926s-6.053,7.165-5.6,8.956C476.1,262.454,482.146,255.291,483.715,255.738Z" transform="translate(-444.822 -194.945)" fill="#c8e6c9"/><path d="M516.482,443.68s-9.945,3.256-7.425,20.628h4.7l5.609-17.74Z" transform="translate(-472.182 -350.224)" fill="#be7c5e"/><path d="M653.828,443.68s9.612,3.7,7.09,21.075l-4.615-.035L650.94,446.56Z" transform="translate(-578.587 -350.224)" fill="#be7c5e"/><path d="M520.554,330.82s-4.54,23.337-7.014,22.1c0,0,23.882,20.626,44.966,0,0,0-3.712-16.737-9.079-22.1Z" transform="translate(-475.84 -265.828)" fill="#333"/><circle cx="17.738" cy="17.738" r="17.738" transform="translate(42.285 46.015)" fill="#333"/><path d="M562.352,464.719a16.144,16.144,0,0,0,.414-10.313c-1.649-5.773-.414-.414-.414-.414l-2.888-10.313H528.528l-2.888,12.376s-1.695,5.73.414,8.25" transform="translate(-484.407 -350.224)" opacity="0.1"/><path d="M558.642,443.68H527.7l-2.888,12.376s-2.873,8.209.414,8.25c36.474.449.2,0,36.3.414a16.144,16.144,0,0,0,.414-10.313c-1.649-5.773-.414-.414-.414-.414Z" transform="translate(-483.401 -350.224)" fill="#f55f44"/><path d="M213.373,329.84h12.376v14.391a1.7,1.7,0,0,1-1.7,1.7h-8.984a1.7,1.7,0,0,1-1.7-1.7V329.84Z" transform="translate(-159.582 -246.652)" opacity="0.1"/><path d="M213.373,328h12.376v14.394a1.7,1.7,0,0,1-1.7,1.7h-8.984a1.7,1.7,0,0,1-1.7-1.7V328Z" transform="translate(-159.582 -245.276)" fill="#be7c5e"/><path d="M577.42,403.838a17.811,17.811,0,0,0,12.376.035V402.36H577.42Z" transform="translate(-523.609 -319.325)" opacity="0.1"/><circle cx="17.738" cy="17.738" r="17.738" transform="translate(42.285 49.867)" fill="#be7c5e"/><path d="M534.81,276.421h33.826s-2.888-13.66-15.675-12.789S534.81,276.421,534.81,276.421Z" transform="translate(-491.746 -215.556)" fill="#333"/><ellipse cx="1.649" cy="3.095" rx="1.649" ry="3.095" transform="translate(41.001 63.753)" fill="#be7c5e"/><ellipse cx="1.649" cy="3.095" rx="1.649" ry="3.095" transform="translate(75.655 63.753)" fill="#be7c5e"/><path d="M534.81,278.241h33.826s-2.888-13.66-15.675-12.789S534.81,278.241,534.81,278.241Z" transform="translate(-491.746 -216.917)" opacity="0.1"/><circle cx="17.412" cy="17.412" r="17.412" transform="translate(82.268 126.71)" fill="#be7c5e"/><path d="M740.083,473.339h0c-5.044,1.168-8.522-2.126-9.69-7.178l-11.6-43.128a9.458,9.458,0,0,1,7.062-11.312h0a9.458,9.458,0,0,1,11.312,7.062l9.478,44.232C747.8,468.083,745.147,472.171,740.083,473.339Z" transform="translate(-629.147 -326.147)" fill="url(#e)"/><rect width="15.849" height="63.279" rx="7.924" transform="translate(89.478 89.558) rotate(-13.01)" fill="#be7c5e"/><path d="M416.181,463.4h0a8.446,8.446,0,0,1-11.6,2.641l-16.7-10.8a8.446,8.446,0,0,1-2.641-11.6h0a8.446,8.446,0,0,1,11.6-2.641l16.7,10.8A8.446,8.446,0,0,1,416.181,463.4Z" transform="translate(-378.942 -347.256)" fill="url(#f)"/><path d="M417.953,563.332h0A8.522,8.522,0,0,1,406.235,566l-10.341-7.544a8.522,8.522,0,0,1-2.663-11.718h0a8.522,8.522,0,0,1,11.718-2.663l10.341,7.544A8.522,8.522,0,0,1,417.953,563.332Z" transform="translate(-384.904 -424.325)" fill="url(#g)"/><path d="M419.847,565.2h0a7.947,7.947,0,0,1-10.928,2.484l-9.644-7.042a7.947,7.947,0,0,1-2.484-10.928h0a7.947,7.947,0,0,1,10.928-2.484l9.644,7.034a7.947,7.947,0,0,1,2.484,10.936Z" transform="translate(-387.63 -426.752)" fill="#be7c5e"/><path d="M418.152,465.155h0a7.947,7.947,0,0,1-10.928,2.484l-15.71-10.164a7.947,7.947,0,0,1-2.484-10.928h0a7.947,7.947,0,0,1,10.941-2.484l15.7,10.172A7.947,7.947,0,0,1,418.152,465.155Z" transform="translate(-381.827 -349.601)" fill="#be7c5e"/><path d="M419.807,364.106h0a8.484,8.484,0,0,1-11.667,2.651l-21.16-13.778a8.484,8.484,0,0,1-2.651-11.672h0A8.484,8.484,0,0,1,396,338.656l21.16,13.778A8.484,8.484,0,0,1,419.807,364.106Z" transform="translate(-378.249 -270.721)" fill="url(#h)"/><path d="M422.261,366.247h0a7.947,7.947,0,0,1-10.928,2.484l-19.819-12.9A7.947,7.947,0,0,1,389.03,344.9h0a7.947,7.947,0,0,1,10.941-2.5l19.819,12.9A7.947,7.947,0,0,1,422.261,366.247Z" transform="translate(-381.827 -273.584)" fill="#be7c5e"/></g><g transform="translate(567.794 78.016) rotate(81)"><path d="M10.5,184.185a3.256,3.256,0,0,1,4.6,0L72.54,241.625a3.255,3.255,0,0,1-4.6,4.6L10.5,188.788A3.255,3.255,0,0,1,10.5,184.185Z" transform="translate(30.341 -147.59)" fill="#a66300"/><path d="M14.56,187.459c.058-.058.119-.11.18-.163l62.027,62.027c-.053.061-.1.122-.163.18a3.255,3.255,0,0,1-4.6,0L14.56,192.062A3.255,3.255,0,0,1,14.56,187.459Z" transform="translate(26.276 -150.864)" fill="#875100"/><path d="M216.549,94.21l7.541-10.1-4.049-11.941a3.255,3.255,0,0,1,4.128-4.128l11.94,4.049,10.105-7.541a3.255,3.255,0,0,1,5.2,2.65L251.255,79.8l10.295,7.28a3.255,3.255,0,0,1-.913,5.766L248.6,96.592l-3.742,12.04a3.255,3.255,0,0,1-5.766.913l-7.28-10.295-12.608.161a3.255,3.255,0,0,1-2.65-5.2Z" transform="translate(-197.644 -51.469)" fill="#face17"/><path d="M129.58,42.848l-2.6,4.751-4.751,2.6,4.751,2.6,2.6,4.751,2.6-4.751,4.751-2.6-4.751-2.6Z" transform="translate(-54.586 -34.513)" fill="#e6bd15"/><g transform="translate(9.542)"><path d="M327.522,364.732l-2.1,3.843-3.843,2.1,3.843,2.1,2.1,3.843,2.1-3.843,3.843-2.1-3.843-2.1Z" transform="translate(-298.283 -293.786)" fill="#face17"/><path d="M342.72,0l-2.1,3.843-3.843,2.1,3.843,2.1,2.1,3.843,2.1-3.843,3.843-2.1-3.843-2.1Z" transform="translate(-316.437)" fill="#face17"/><path d="M469.435,130.689l-1.258,2.3-2.3,1.258,2.3,1.258,1.258,2.3,1.258-2.3,2.3-1.258-2.3-1.258Z" transform="translate(-465.877 -105.268)" fill="#face17"/></g><g transform="translate(11.454 17.184)"><path d="M439.129,294.117l1.524,5.2-1.524,5.2,5.2-1.524,5.2,1.524-1.524-5.2,1.524-5.2-5.2,1.524Z" transform="translate(-439.129 -254.09)" fill="#e6bd15"/><path d="M288.583,117.322a3.255,3.255,0,0,1,.292-3.425l7.541-10.1-4.049-11.941a3.255,3.255,0,0,1,.781-3.347c.058-.058.117-.112.178-.165L321.182,116.2l-.261.081-3.742,12.04a3.255,3.255,0,0,1-5.766.913l-7.28-10.295-12.608.161A3.275,3.275,0,0,1,288.583,117.322Z" transform="translate(-281.423 -88.34)" fill="#e6bd15"/></g></g></g></svg>